<svg width="30" height="30" viewBox="0 0 5000 5000" fill="none" xmlns="http://www.w3.org/2000/svg">
<rect y="6.10352e-05" width="5000" height="5000" rx="2500" fill="#FF0099"/>
<path d="M3171.8 4908.71C2958.03 4968.2 2732.73 5000 2500 5000C2350.37 5000 2203.8 4986.85 2061.4 4961.65L1170.35 1636.2C1133.62 1499.11 1185.54 1411.73 1326.13 1374.06L3532.64 782.829C3673.23 745.159 3761.89 794.869 3798.62 931.959L3968.05 1564.29C4005.7 1704.8 3954.24 1793.9 3813.65 1831.57L2445.51 2198.16L2586.01 2722.53L3640.41 2440C3780.99 2402.33 3870.11 2453.76 3907.76 2594.27L4077.19 3226.6C4114.85 3367.12 4063.38 3456.21 3922.79 3493.88L2868.4 3776.4L3171.8 4908.71Z" fill="#2B2B2B"/>
<path d="M2905.87 4967.22C2773.77 4988.79 2638.19 5000 2500 5000C2242.43 5000 1993.97 4961.05 1760.16 4888.72L837.099 1443.8C800.366 1306.71 852.293 1219.33 992.878 1181.66L3199.39 590.426C3339.98 552.756 3428.64 602.466 3465.37 739.556L3634.8 1371.88C3672.45 1512.4 3620.98 1601.49 3480.4 1639.16L2112.26 2005.76L2252.76 2530.12L3307.16 2247.6C3447.74 2209.93 3536.86 2261.35 3574.51 2401.87L3743.94 3034.2C3781.59 3174.71 3730.13 3263.81 3589.54 3301.48L2535.15 3584L2694.06 4177.06L2694.15 4177.08L2905.87 4967.22Z" fill="white"/>
</svg>